<svg width="441" height="237" viewBox="0 0 441 237" fill="none" xmlns="http://www.w3.org/2000/svg">
<rect width="441" height="237" rx="38" fill="white"/>
<path d="M56.5 95L51 135.5C51 135.5 54 100.5 67 100C80 99.5 80 135.5 80 135.5" stroke="black" stroke-width="3" stroke-linecap="round"/>
<path d="M114 99V103.5M114 134V131M114 103.5C114 103.5 91.5001 99 91.0001 118C90.5001 137 114 131 114 131M114 103.5V131" stroke="black" stroke-width="3" stroke-linecap="round"/>
<path d="M127 96.5V115.75M127 135V115.75M127 115.75L149.5 99.5M127 115.75L147.5 135" stroke="black" stroke-width="3" stroke-linecap="round"/>
<path d="M163 121C163 121 161 124.5 160.5 128.5C160 132.5 160.5 136.515 166.5 136.515C172.5 136.515 173.5 131.5 172.5 127C171.5 122.5 163 121 163 121ZM163 121C163 121 167.5 111 176 115.5C184.5 120 182 138 186.5 135.5C191 133 190 118 190 118C190 118 189.5 98.5001 177.5 98.0001C165.5 97.5001 159 109.5 159 109.5" stroke="black" stroke-width="3" stroke-linecap="round"/>
<path d="M185.2 77.9701L184.3 90.0299" stroke="black" stroke-width="3" stroke-linecap="round"/>
<path d="M199 108.019C199 108.019 200.5 98.5191 207.5 99.0191C214.5 99.5191 213 108.019 213 108.019L211.5 137.019" stroke="black" stroke-width="3" stroke-linecap="round"/>
<path d="M254 87.5325L248.432 97.4695" stroke="black" stroke-width="3" stroke-linecap="round"/>
<path d="M224.787 124.851C228.229 123.641 233.917 125.137 234.433 128.787C234.994 132.758 231.824 136.675 228.036 135.492C219.792 132.917 226.218 121.104 227.579 118.659C228.94 116.213 234.768 110.007 239.991 112.775C249.698 117.92 246.191 137.332 249.851 136.299C253.512 135.267 253.711 108.671 252.701 105.433C251.691 102.195 249.709 97.1171 241.379 95.9437C233.049 94.7703 224.523 103.399 224.523 103.399" stroke="black" stroke-width="3" stroke-linecap="round" stroke-linejoin="round"/>
<path d="M351.8 23.1148C349.937 22.6388 347.455 23.9099 345.027 26.0499C346.168 25.6262 347.342 25.2942 348.536 25.0571C342.775 27.2528 337.959 35.7351 336.255 41.5463C339.035 39.2266 344.454 35.672 347.648 38.968C343.529 36.8384 338.888 42.7626 336.654 45.4408C340.494 44.9887 343.638 43.458 348.628 44.7905C342.821 46.6538 340.097 49.708 337.231 52.7075C341.373 51.5022 344.285 50.9336 346.723 51.0873C349.483 49.1826 352.349 47.2698 355.299 45.8704C357.511 44.8208 359.8 44.0535 362.108 43.8566C361.514 36.183 359.394 28.637 353.103 23.8426C352.717 23.4744 352.279 23.2371 351.8 23.1148ZM363.671 46.6441C361.408 46.548 359.019 47.2297 356.509 48.4206C353.219 49.9815 349.81 52.3826 346.477 54.6894C343.144 56.9963 339.902 59.218 336.702 60.3791C334.248 61.2692 331.658 61.4402 329.373 60.3791C329.198 62.6859 329.463 65.8116 330.174 68.8116C331.121 72.8019 332.884 76.6244 334.76 78.3282C335.622 79.1107 336.514 79.3739 337.914 79.411C339.314 79.448 341.146 79.1804 343.391 78.9012C347.88 78.3424 354.028 77.81 362.217 80.096C370.406 82.3819 375.389 86.0212 378.941 88.8246C380.717 90.226 382.145 91.4035 383.362 92.097C384.578 92.7904 385.477 93.027 386.62 92.8041C389.108 92.3185 392.595 89.9617 395.472 87.0383C397.634 84.8407 399.479 82.304 400.525 80.24C398.02 79.9641 395.893 78.4767 394.255 76.4444C392.119 73.7934 390.496 70.214 388.84 66.5144C387.184 62.8149 385.511 58.9954 383.505 55.9563C381.975 53.6373 380.284 51.817 378.298 50.7269C378.166 52.9638 377.176 54.7056 375.676 55.6909C373.671 57.009 371.116 57.0728 368.822 56.4326C366.529 55.7923 364.376 54.4145 363.343 52.2482C362.571 50.6289 362.626 48.6257 363.671 46.6437L363.671 46.6441ZM379.24 56.8024C380.535 57.1146 381.47 59.141 379.489 60.5296C382.591 58.9403 383.899 62.7381 380.993 63.1974C378.735 63.5544 376.502 64.1293 374.341 64.8997C374.364 65.4296 374.303 65.9596 374.161 66.4706C373.731 68.0115 372.922 69.2995 371.392 70.044L371.169 70.1536L371.096 70.3906L370.894 71.0501C372.529 73.2313 374.504 75.1674 376.883 76.7947C379.628 78.6721 376.376 81.7637 373.807 78.5268C375.744 82.1052 371.433 83.2219 371.049 80.081C370.819 78.2049 370.403 76.3537 369.823 74.5472L369.812 74.5821C369.546 74.6555 368.999 74.785 368.226 74.8409L369.045 71.9077L367.634 71.5138L366.724 74.7737C366.08 74.7481 365.651 74.7477 364.848 74.566L365.713 71.4673L364 70.989L363.133 74.0952C362.386 73.8557 362.03 73.6555 361.463 73.3611L362.387 70.0492L360.976 69.6553L360.133 72.6761C359.322 72.1465 358.803 71.6622 358.576 71.4341L358.587 71.3886C357.157 72.6325 355.843 73.999 354.676 75.4832C352.72 77.9708 349.611 74.7831 353.122 72.7253C349.248 74.1642 348.067 69.8333 351.388 69.649C354.251 69.4901 356.931 68.8647 359.449 67.8549L359.623 67.1404L359.68 66.9047L359.55 66.7002C358.654 65.2853 358.633 63.772 359.058 62.2489C359.2 61.7411 359.419 61.2673 359.703 60.8336C358.255 59.0594 356.644 57.4161 354.9 55.9438C352.652 54.0454 355.737 51.4737 357.567 54.4394C356.613 52.2737 358.361 51.0301 359.627 51.3554C360.161 51.4928 360.61 51.9102 360.733 52.6551C361.08 54.7554 361.54 56.7929 362.133 58.7462C363.815 57.9181 365.97 57.6776 368.165 58.2563L368.303 58.2946C370.539 58.9188 372.304 60.256 373.336 61.8617C374.861 60.4951 376.315 58.9873 377.704 57.3649C378.17 56.8217 378.732 56.6804 379.239 56.8025L379.24 56.8024ZM362.101 62.2567C361.421 62.0762 360.831 62.2122 360.579 63.0172C360.218 64.3094 360.971 65.6499 362.265 66.0109C363.557 66.3716 364.898 65.6156 365.258 64.3234C365.258 64.3234 363.493 62.6265 362.101 62.2567ZM371.559 64.897C370.178 64.4924 367.788 65.0295 367.788 65.0295C367.427 66.3217 368.183 67.663 369.475 68.0237C370.767 68.3844 372.107 67.6278 372.467 66.3357C372.669 65.5168 372.234 65.0945 371.559 64.897ZM366.027 66.4396L364.068 68.7971L366.482 69.4712L366.027 66.4396Z" fill="#F17C1B"/>
<path d="M270.892 108.5C268.893 111 263.068 110.22 261.168 107.288C257.553 101.708 263 96.212 268 98.4999C273 100.788 270 119.643 270 119.643M270 119.643C270 122.643 268.668 133.288 268.668 133.288C267.474 134.787 258.672 132.86 261.668 124.788C263.113 120.896 270 119.643 270 119.643ZM270 119.643C281.5 121.143 282.043 127.563 287.168 135.5V98.788" stroke="black" stroke-width="3" stroke-linecap="round" stroke-linejoin="round"/>
<path d="M307.18 112.024C303.284 112.779 297.255 110.737 296.216 107.238C294.927 102.898 299.601 95.8005 304.92 98.8799C310.238 101.959 304.569 129.234 306.434 133.193C308.299 137.152 323.702 136.712 326.677 133.193C329.653 129.674 326.678 98 326.678 98" stroke="black" stroke-width="3" stroke-linecap="round" stroke-linejoin="round"/>
<path d="M305.438 82.2752C307.466 82.0767 309.816 79.6664 309.127 76.5174C308.954 75.7298 307.456 73.329 304.587 74.6239C300.858 76.3074 301.243 81.9563 305.438 82.2752ZM305.438 82.2752C310.919 85.3697 319.806 84.0175 323.493 78.9154C325.804 75.7164 325.446 69 325.446 69" stroke="black" stroke-width="3" stroke-linecap="round" stroke-linejoin="round"/>
<path d="M351.539 121.49C351.539 121.49 345.557 121.182 344.77 117.822C344.023 114.634 346.128 110.58 349.627 110.69C353.832 110.822 351.539 121.49 351.539 121.49ZM351.539 121.49C351.539 121.49 349.244 129.081 346.948 135.856C344.653 142.631 337.001 117.211 337.001 114.715C337.001 112.218 336.794 95.0848 343.887 96.885C347.864 97.8942 351.539 103.304 351.539 103.304C351.539 103.304 355.549 95.8711 359.192 95.1019C364.446 93.9924 366.079 102.234 366.844 105.8C367.609 109.366 365.313 135.856 365.313 135.856" stroke="black" stroke-width="3" stroke-linecap="round" stroke-linejoin="round"/>
<path d="M162 166L156.5 206.5C156.5 206.5 159.5 171.5 172.5 171C185.5 170.5 185.5 206.5 185.5 206.5" stroke="black" stroke-width="3" stroke-linecap="round"/>
<path d="M145.508 166V170.5M145.508 201V198M145.508 170.5C145.508 170.5 123.008 166 122.508 185C122.008 204 145.508 198 145.508 198M145.508 170.5V198" stroke="black" stroke-width="3" stroke-linecap="round"/>
<path d="M56 211L75 162L91 188L107.5 162L121 211" stroke="black" stroke-width="3" stroke-linecap="round" stroke-linejoin="round"/>
<path d="M200 164.5L199.722 169.5M197 218.5L198.361 194M199.722 169.5C214.5 164.5 222.5 173.5 220 183C217.5 192.5 211 196 198.361 194M199.722 169.5L198.361 194" stroke="black" stroke-width="3" stroke-linecap="round" stroke-linejoin="round"/>
<path d="M228.615 180.721C229.573 173.119 234.994 168.644 242.344 169.022C249.243 169.377 254.204 173.586 255.115 180.721C256.146 188.802 250.157 195.567 242.344 195.981C234.131 196.417 227.543 189.218 228.615 180.721Z" stroke="black" stroke-width="3" stroke-linecap="round" stroke-linejoin="round"/>
<path d="M261.5 167C261.5 167 264.357 199.965 267.214 199.965C270.071 199.965 280.357 174.389 280.357 174.389C280.357 174.389 288.929 201.101 292.929 199.965C296.929 198.828 301.5 167 301.5 167" stroke="black" stroke-width="3" stroke-linecap="round" stroke-linejoin="round"/>
<path d="M308.654 180.553C308.654 180.553 334.746 180.664 335.623 177.818C336.5 174.971 332.295 165.818 320.127 167.787C307.96 169.756 308.654 180.553 308.654 180.553ZM308.654 180.553C308.654 180.553 307.729 191.298 311.469 195.834C314.564 199.588 318.846 201.543 324.674 200.634C331.074 199.634 333.546 196.794 333.546 196.794" stroke="black" stroke-width="3" stroke-linecap="round" stroke-linejoin="round"/>
<path d="M346.578 164.149L346.627 177.624M346.627 199.181L346.627 177.624M346.627 177.624C346.627 177.624 353.069 162.965 360.578 164.098C364.865 164.745 369.602 170.554 369.602 170.554" stroke="black" stroke-width="3" stroke-linecap="round" stroke-linejoin="round"/>
</svg>
